<?xml version="1.0" encoding="UTF-8"?>
<svg xmlns="http://www.w3.org/2000/svg" viewBox="0 0 840.73 101.81">
  <defs>
    <style>
      .cls-1 {
        fill: #004fff;
      }

      .cls-2, .cls-3 {
        fill: #4f936e;
      }

      .cls-3 {
        isolation: isolate;
      }

      .cls-4 {
        fill: #f8a09e;
      }
    </style>
  </defs>
  <g id="Layer_1" data-name="Layer 1" data-bbox="18.392 20.995 840.726 101.805" data-type="ugc">
    <path class="cls-4" d="M254.91,101.61h-1.5c-9.8-.5-13.7-6.9-14.1-12.8-.4-6.4,3.4-14.3,9.5-15.4.4,0,.9-.2,1.5-.4,3.1-.8,8.4-2.2,15.2-.5.5-2.3,1.1-5.1,1.7-8,.9-4.6,1.9-8.9,2.8-13.1-6.1.2-11.4.2-13.3.2-3.3,0-6-2.8-5.9-6.1,0-3.3,2.8-6,6.1-5.9,4.7,0,10.6,0,16.1-.3,1.7-6.4,3.4-11.5,5.2-14.6,4.8-8.1,14.9-9.4,22.3-7.2,6.2,1.8,9.8,5.9,9.6,10.6-.4,8.1-9.5,16.8-17.8,20.4-2.3,1-5.8,1.6-9.8,2.1-1.3,5.8-2.6,11.7-3.5,16.4-1,4.7-1.7,8.2-2.3,10.7,1.1.7,2.1,1.5,3.3,2.4,11.5,9.1,21.9,9.5,24.9,8.3,5.1-2.1,8.3-3.2,8.5-3.3,3.1-1.1,6.6.5,7.7,3.6s-.5,6.6-3.6,7.7c0,0-3.2,1.1-8,3.1-7.6,3.1-22.2,1.4-36.4-9.7-2.5,5.7-7.3,12-17.9,12l-.3-.2ZM252.01,84.91c-.5.9-1.1,2.7-.6,3.8.3.7,2.1.9,2.6.9,4.7.3,6.6-1.4,8.1-5.6-3.7-.8-6.5,0-8.9.6l-1.2.3ZM293.71,28.41c-.5,0-1,0-1.5.1-1.8.3-3.1,1-3.8,2.2-.8,1.4-1.8,4-2.7,7.1.7-.2,1.4-.3,1.8-.5,4.5-1.9,8.3-5.8,9.8-8.3-1-.3-2.3-.6-3.6-.6"/>
    <path class="cls-1" d="M174.51,29.31h18.7l8.4,67.7h-8.8l-3.2-25.9h-27.4l-13.2,25.9h-9.2l34.8-67.7h-.1ZM188.71,63.61l-2.6-33.6h-7.5l-.4,9.6-12.1,24h22.7-.1Z"/>
    <path class="cls-2" d="M205.01,100.01h-14.9l-3.2-25.9h-22.9l-13.2,25.9h-16l37.8-73.7h23.2l9.1,73.7h.1ZM195.41,94.01h2.8l-7.6-61.7h-1.3l2.7,34.3h-30.8l14-27.8.2-4.7-30.7,59.9h2.5l13.2-25.9h31.9l3.2,25.9h-.1ZM171.01,60.61h14.5l-2.2-27.6h-1.8l-.3,7.4-10.2,20.2Z"/>
    <path class="cls-2" d="M28.31,100.61C7.71,100.61.81,78.61,0,66.91c-.1-1.9.7-3.8,2.2-5.1,1.5-1.2,3.5-1.7,5.4-1.1l14.6,4c3.2.9,5.1,4.2,4.2,7.4s-4.2,5.1-7.4,4.2l-5.2-1.4c.4,1.2.8,2.4,1.4,3.6,4.5,10.2,11.2,10.2,13.4,10.1,2.7,0,5.2-1.1,7.6-2.9-5.1-8.7-6.7-19.8-6.9-29.3C28.91,40.11,35.21.61,52.91,0c3.5-.1,6.7,1.3,9,4,3.5,4,5.2,10.7,5.4,20.6.1,6.5-.5,14.5-1.6,21.3-1.6,9.7-5.5,27.1-13.7,39.6,1,.6,2,1.2,3,1.6,7.4,2.9,11.1-2.4,11.1-2.4,1.8-2.8,5.5-3.7,8.3-1.9s3.7,5.5,1.9,8.3c-3.5,5.6-13.2,12.1-25.7,7.2-2.4-1-4.6-2.2-6.5-3.6-4.3,3.6-9.4,5.8-15.4,5.9h-.4ZM52.91,12.11c-4.1,1.8-12.2,23-11.7,44,.2,7.6,1.2,13.9,3,18.9,4.5-8.7,7.7-20.3,9.5-31,2.5-14.7,1.6-29.1-.8-31.9"/>
    <path class="cls-1" d="M374.91,29.01h17.5l18.1,67.7h6.6v-9.1l8.5-58.6h8.7l-13.3,67.7h-17.5l-17.1-67.4-9.3.2,1.1,8.3-7.9,58.9h-8.6l13.2-67.7Z"/>
    <path class="cls-2" d="M423.51,99.61h-22.3l-17.1-67.4h-3.5l.7,5.5v.4l-8.3,61.5h-14.9l13.9-71.3,2,.4-.3-2.3h1.2v-.5h19.8l18.1,67.7h1.3v-6.5l8.9-61.1h15l-14.4,73.7-.1-.1ZM405.91,93.61h.7l-14.8-55.3,14.1,55.3ZM365.31,93.61h2.4l5.1-38.2-7.5,38.2ZM428.11,32.01l-7.1,49,9.6-49h-2.5Z"/>
    <path class="cls-2" d="M443.81,99.61V21.61h44.6v5.6h5.6v5.6h5.6v5.6h5.6v44.6h-5.6v5.6h-5.6v5.6h-5.6v5.6h-44.6v-.2ZM482.81,88.51v-5.6h5.6v-5.6h5.6v-33.4h-5.6v-5.6h-5.6v-5.6h-27.9v55.7h27.9v.1Z"/>
    <path class="cls-2" d="M521.51,99.61h-1.4c-4.3-.5-8-3.1-10.2-7.1-2.3-4.4-2.3-11.4.1-18,3-8.2,9.1-14.6,17.1-17.9,3.2-1.3,6.5-2.2,9.7-2.8.3-.8.7-1.4,1-2,3.2-5.7,6-21.1,5.5-26.5-2.5.8-6.9,3.5-10.3,6.4-2.5,2.1-6.3,1.8-8.5-.7-2.1-2.5-1.8-6.3.7-8.5,5.2-4.5,18.3-14.1,26.3-7,2.5,2.2,5.5,7,2.7,22.3-.9,5.2-2.4,10.7-3.9,14.9,2.8,0,5.4.2,7.8.3,3.6.2,7,.4,9.2,0,.2,0,.5,0,.7-.1.8-2.1,1.5-3.9,1.9-5.3l.2-.6c4.3-14.8,10.1-30.4,20.8-33.3,7-1.9,10.7,1.7,12,3.4,5.1,6.6,1.6,18.2-2.9,26.1-5.8,10.2-13.2,16.6-23,19.8-2.3,5.9-4.7,12.5-4.9,16.7v1.7c-.2,1.7-.3,4.1-.2,5.7,4.4-1.4,11.6-9,15.4-14,2-2.6,5.8-3.2,8.4-1.2s3.2,5.8,1.2,8.4-12.3,15.8-22.2,18.5c-4.4,1.2-8,.7-10.8-1.5-4.6-3.7-4.3-9.9-4-16.4v-1.7c.2-4.2,1.6-9.1,3.3-14.1-1.8,0-3.8-.1-5.8-.2-3.7-.2-7.9-.4-12.1-.2-.3.8-.6,1.7-.9,2.5-3.3,9.4-7.4,21.1-12.9,27.4-2.7,3.1-6.4,4.8-10.3,4.8l.3.2ZM531.81,67.61h-.1c-6,2.5-8.9,7-10.2,10.3-1.8,4.5-1.3,8.1-1,8.8.2.3.5.8.9.8.3,0,.8-.1,1.3-.7,3.3-3.9,6.5-12.1,9.2-19.4l-.1.2ZM593.51,25.61c-1.9,1-5.6,5-10.4,20.3,2.4-2.3,4.6-5.1,6.6-8.6,2.9-5.1,3.8-9.5,3.8-11.7"/>
    <path class="cls-2" d="M326.61,99.61v-5.7h5.7v-45.8h-5.7v-5.7h5.7v-5.7h5.7v-5.7h5.7v62.9h5.7v5.7h-22.9.1ZM332.31,19.61v-11.5h11.5v11.5h-11.5Z"/>
    <g>
      <path class="cls-3" d="M626.21,97.81v-6.2h-6.2v-6.2h-6.2v-12.5h-6.2v-18.7h6.2v-12.5h6.2v-6.2h6.2v-6.2h31.2v6.2h6.2v6.2h6.2v12.5h6.2v18.7h-6.2v12.5h-6.2v6.2h-6.2v6.2h-31.2ZM651.11,91.61v-6.2h6.2v-12.5h6.2v-18.7h-6.2v-12.5h-6.2v-6.2h-18.7v6.2h-6.2v12.5h-6.2v18.7h6.2v12.5h6.2v6.2h18.7Z"/>
      <path class="cls-3" d="M626.21,97.81v-6.2h-6.2v-6.2h-6.2v-12.5h-6.2v-18.7h6.2v-12.5h6.2v-6.2h6.2v-6.2h31.2v6.2h6.2v6.2h6.2v12.5h6.2v18.7h-6.2v12.5h-6.2v6.2h-6.2v6.2h-31.2ZM651.11,91.61v-6.2h6.2v-12.5h6.2v-18.7h-6.2v-12.5h-6.2v-6.2h-18.7v6.2h-6.2v12.5h-6.2v18.7h6.2v12.5h6.2v6.2h18.7Z"/>
    </g>
    <path class="cls-1" d="M681.21,90.71l13.7-64.4h8l-13.5,63.8h38.3l-1.3,6.4h-40.3c-3.9,0-5.7-2.1-5-5.8h.1Z"/>
    <path class="cls-2" d="M728.91,99.51h-42.7c-3.7,0-5.6-1.5-6.6-2.7s-2-3.3-1.3-6.7,14.2-66.8,14.2-66.8h14.1l-13.5,63.8h38.3l-2.5,12.4ZM684.21,91.31c-.2.9,0,1.5,0,1.7.2.2.8.5,2,.5h37.8v-.4h-38.3l13.5-63.8h-1.9l-13.2,62h.1Z"/>
    <g>
      <path class="cls-3" d="M88.31,98.61v-6.8h-6.8v-17.1h6.8v10.3h6.8v6.8h20.5v-6.8h6.8v-13.7h-6.8v-6.8h-13.7v-6.8h-13.7v-6.8h-6.8v-13.7h6.8v-6.8h6.8v13.7h6.8v6.8h13.7v6.8h13.7v6.8h6.8v20.5h-6.8v6.8h-6.8v6.8h-34.2.1ZM125.91,43.91v-6.8h-6.8v-6.8h-24v-6.8h30.8v6.8h6.8v13.7h-6.8v-.1Z"/>
      <path class="cls-3" d="M88.31,98.61v-6.8h-6.8v-17.1h6.8v10.3h6.8v6.8h20.5v-6.8h6.8v-13.7h-6.8v-6.8h-13.7v-6.8h-13.7v-6.8h-6.8v-13.7h6.8v-6.8h6.8v13.7h6.8v6.8h13.7v6.8h13.7v6.8h6.8v20.5h-6.8v6.8h-6.8v6.8h-34.2.1ZM125.91,43.91v-6.8h-6.8v-6.8h-24v-6.8h30.8v6.8h6.8v13.7h-6.8v-.1Z"/>
    </g>
    <path class="cls-2" d="M742.41,100.41c-.9,0-1.8-.2-2.6-.6-3-1.4-4.2-5-2.8-8,7.3-15.1,19.2-40.1,20.2-42.8.3-.8.7-1.8,1.3-3,3.8-8.4,4.7-12.1,4.6-13.8-6.5-.5-9.4,4.8-9.7,5.4-1.4,3-4.9,4.3-8,2.9-3-1.4-4.3-5-2.9-8,2.4-5.1,9.7-13.5,22-12.2,3.9.4,7.1,2.3,8.9,5.4.7,1.3,1.2,2.7,1.4,4.2,7.4-7.1,14.9-12,21.9-9.2,3.9,1.6,6,4.9,7.1,8.9,5.5-4.2,11-7.5,15.7-8.9,6.3-1.9,10.2-.3,12.4,1.5,8.2,6.5,6.5,20.4-5,42.5-.1.2-.2.4-.2.5-.2.4-.4.7-.9,1.6-5.4,9.5-7.6,15-8.5,18,3.5-2,8.8-6.3,13-10.8,2.3-2.4,6.1-2.6,8.5-.3s2.6,6.1.3,8.5c-7,7.5-20.1,19.4-29.4,14.6-2.2-1.1-3.7-3.1-4.5-5.5-1.7-5.8,1.3-14.9,10.1-30.4.2-.4.4-.7.5-.9-.1.2-.2.3-.2.4,0-.1.3-.6.6-1.2,9.6-18.3,9.1-25.8,8.4-27.3-2.1,0-8.8,2.9-19.1,11.9,0,0-.2.1-.2.2,2.1,15.4,1.2,33.2-13.3,36h-.5c-4.6.5-8.8-1.2-11.6-4.5-3.4-4.2-4.1-10.4-2-17.2,1.4-4.3,7.5-12,15.2-19.4,0-4.1-.7-6.1-1-6.9-2,.5-6.4,3.5-15.7,13.6-1.6,1.8-2.5,2.7-3.3,3.4-2.8,3.4-15,27-25.4,48.1-1,2.1-3.2,3.4-5.4,3.4l.1-.1ZM794.31,55.01c-2.9,3.3-4.6,5.8-4.9,6.9-1,3.3-.7,5.4-.2,6,.1.2.5.2.8.2,2.9-.8,4.4-5.6,4.3-13.1M826.81,64.81v.2-.2ZM773.11,49.11h-.1.1Z"/>
  </g>
</svg>